<?xml version="1.0" encoding="UTF-8"?>
<svg width="20px" height="20px" viewBox="0 0 20 20" version="1.1" xmlns="http://www.w3.org/2000/svg" xmlns:xlink="http://www.w3.org/1999/xlink">
    <!-- Generator: Sketch 51.2 (57519) - http://www.bohemiancoding.com/sketch -->
    <title>refresh_48px</title>
    <desc>Created with Sketch.</desc>
    <defs></defs>
    <g id="Page-1" stroke="none" stroke-width="1" fill="none" fill-rule="evenodd">
        <g id="refresh_48px" fill="#585858" fill-rule="nonzero">
            <path d="M17.0606629,2.9375 C15.2532833,1.125 12.7579737,0 9.99374609,0 C4.46529081,0 0,4.475 0,10 C0,15.525 4.46529081,20 9.99374609,20 C14.6529081,20 18.5553471,16.8125 19.6622889,12.5 L17.0606629,12.5 C16.028768,15.4125 13.2645403,17.5 9.99374609,17.5 C5.84740463,17.5 2.48905566,14.14375 2.48905566,10 C2.48905566,5.85625 5.84740463,2.5 9.99374609,2.5 C12.0637899,2.5 13.9212008,3.3625 15.2782989,4.71875 L11.2445278,8.75 L20,8.75 L20,0 L17.0606629,2.9375 Z" id="Shape"></path>
        </g>
    </g>
</svg>